Coordinates
version=1
nRows=5
nColumns=40
inDegrees=yes

Units are S.I. units (second, meters, Newtons, ...)
Angles are in degrees.

endheader
time	pelvis_tilt	pelvis_list	pelvis_rotation	pelvis_tx	pelvis_ty	pelvis_tz	hip_flexion_r	hip_adduction_r	hip_rotation_r	knee_angle_r	knee_angle_r_beta	ankle_angle_r	subtalar_angle_r	mtp_angle_r	hip_flexion_l	hip_adduction_l	hip_rotation_l	knee_angle_l	knee_angle_l_beta	ankle_angle_l	subtalar_angle_l	mtp_angle_l	lumbar_extension	lumbar_bending	lumbar_rotation	arm_flex_r	arm_add_r	arm_rot_r	elbow_flex_r	pro_sup_r	wrist_flex_r	wrist_dev_r	arm_flex_l	arm_add_l	arm_rot_l	elbow_flex_l	pro_sup_l	wrist_flex_l	wrist_dev_l
     28.26400000	     -2.35450430	     -3.34100364	      5.79658939	      1.09552868	      0.93422052	      0.48986295	      7.27755355	      2.56171062	    -15.91984853	     14.99201867	     14.99201867	     12.86741908	      4.05732028	     -4.53886822	     31.80748491	    -10.51921786	     -1.97152987	     30.11072290	     30.11072290	      8.67804710	    -13.22370920	      7.42925952	     -9.88663675	      6.24734461	      2.84577451	     34.20620543	    -21.11916521	     -1.40581246	     72.12101147	     45.04584084	      0.00000000	      0.00000000	     -7.03329603	     -7.22575336	      1.69787230	     26.72536664	     45.45393167	      0.00000000	      0.00000000
     28.27800000	     -2.51251578	     -3.33207972	      5.92537743	      1.09421845	      0.93390278	      0.48971744	      7.01157005	      2.60756940	    -15.94139839	     14.74018957	     14.74018957	     13.02429115	      4.03477767	     -4.60448815	     31.92039663	    -10.11769934	     -1.94238018	     26.33521524	     26.33521524	      8.38240297	    -11.30797112	      7.84739840	     -9.86290968	      6.27661660	      2.91857348	     35.92056629	    -20.85890791	     -1.52518630	     73.50189411	     45.01576720	      0.00000000	      0.00000000	     -8.15954911	     -6.93262984	      1.99836771	     26.31771730	     45.38614485	      0.00000000	      0.00000000
     28.29200000	     -2.74493289	     -3.41511527	      6.05988654	      1.09289002	      0.93332118	      0.48948403	      6.86465289	      2.72456129	    -16.03486067	     14.54734915	     14.54734915	     13.19310169	      4.01944677	     -4.68328387	     32.18418986	     -9.79489006	     -1.87941914	     22.95761818	     22.95761818	      8.01641450	     -9.27337076	      8.28549722	     -9.74077696	      6.37523508	      3.07421774	     37.51898652	    -20.68064862	     -1.58174958	     74.81450867	     44.98374287	      0.00000000	      0.00000000	     -9.13039159	     -6.59462632	      2.19646318	     26.04053115	     45.33661946	      0.00000000	      0.00000000
     28.30600000	     -2.76915748	     -3.37069575	      6.16530199	      1.09188861	      0.93311826	      0.48921012	      6.42721646	      2.73897655	    -16.05329653	     14.28828908	     14.28828908	     13.38617042	      4.06966888	     -4.76154781	     32.11815100	     -9.43936249	     -2.13267275	     19.89160471	     19.89160471	      7.56756820	     -6.90385810	      8.53397311	     -9.87000364	      6.35351087	      2.89428398	     38.95752289	    -20.17766796	     -1.44435795	     76.79676194	     44.92468934	      0.00000000	      0.00000000	    -10.31094442	     -6.39134350	      2.49297965	     25.79536489	     45.26620327	      0.00000000	      0.00000000
     28.32000000	     -2.88371234	     -3.41973656	      6.27825588	      1.09088353	      0.93264250	      0.48882795	      6.11518850	      2.83419592	    -16.07638977	     14.07148167	     14.07148167	     13.56398596	      4.06338385	     -4.83420678	     32.27536648	     -9.15368546	     -2.34949569	     17.44920285	     17.44920285	      7.08478751	     -4.72388524	      8.70208741	     -9.85844682	      6.41362977	      2.88124293	     40.22018066	    -19.84022267	     -1.30529653	     78.60543261	     44.87158720	      0.00000000	      0.00000000	    -11.24840819	     -6.15320680	      2.78052586	     25.71768758	     45.20127118	      0.00000000	      0.00000000
